<svg viewBox="0 0 1200 800" xmlns="http://www.w3.org/2000/svg">
  <defs>
    <linearGradient id="bgGradient" x1="0%" y1="0%" x2="100%" y2="100%">
      <stop offset="0%" style="stop-color:#1a1a2e;stop-opacity:1" />
      <stop offset="50%" style="stop-color:#16213e;stop-opacity:1" />
      <stop offset="100%" style="stop-color:#0f3460;stop-opacity:1" />
    </linearGradient>
    
    <linearGradient id="nodeGradient" x1="0%" y1="0%" x2="100%" y2="100%">
      <stop offset="0%" style="stop-color:#4ecdc4;stop-opacity:1" />
      <stop offset="100%" style="stop-color:#44a08d;stop-opacity:1" />
    </linearGradient>
    
    <linearGradient id="llmGradient" x1="0%" y1="0%" x2="100%" y2="100%">
      <stop offset="0%" style="stop-color:#667eea;stop-opacity:1" />
      <stop offset="100%" style="stop-color:#764ba2;stop-opacity:1" />
    </linearGradient>
    
    <linearGradient id="dataGradient" x1="0%" y1="0%" x2="100%" y2="100%">
      <stop offset="0%" style="stop-color:#ff6b6b;stop-opacity:1" />
      <stop offset="100%" style="stop-color:#ee5a5a;stop-opacity:1" />
    </linearGradient>
    
    <filter id="glow">
      <feGaussianBlur stdDeviation="3" result="coloredBlur"/>
      <feMerge> 
        <feMergeNode in="coloredBlur"/>
        <feMergeNode in="SourceGraphic"/>
      </feMerge>
    </filter>
    
    <filter id="shadow">
      <feDropShadow dx="2" dy="2" stdDeviation="3" flood-color="#000000" flood-opacity="0.3"/>
    </filter>
  </defs>
  
  <!-- Background -->
  <rect width="1200" height="800" fill="url(#bgGradient)"/>
  
  <!-- Title -->
  <text x="600" y="40" text-anchor="middle" fill="#ffffff" font-size="28" font-weight="bold" font-family="Arial, sans-serif">
    GraphRAG Architecture
  </text>
  
  <!-- Input Layer -->
  <g id="input-layer">
    <rect x="50" y="100" width="200" height="60" rx="10" fill="url(#dataGradient)" filter="url(#shadow)"/>
    <text x="150" y="125" text-anchor="middle" fill="#ffffff" font-size="14" font-weight="bold">Raw Documents</text>
    <text x="150" y="145" text-anchor="middle" fill="#ffffff" font-size="12">PDF, Text, Web Pages</text>
  </g>
  
  <!-- Processing Pipeline -->
  <g id="processing-pipeline">
    <!-- Entity Extraction -->
    <rect x="320" y="80" width="160" height="50" rx="8" fill="#ff9800" filter="url(#shadow)"/>
    <text x="400" y="100" text-anchor="middle" fill="#ffffff" font-size="12" font-weight="bold">Entity Extraction</text>
    <text x="400" y="115" text-anchor="middle" fill="#ffffff" font-size="10">NER + LLM</text>
    
    <!-- Relationship Extraction -->
    <rect x="320" y="150" width="160" height="50" rx="8" fill="#e91e63" filter="url(#shadow)"/>
    <text x="400" y="170" text-anchor="middle" fill="#ffffff" font-size="12" font-weight="bold">Relationship Mining</text>
    <text x="400" y="185" text-anchor="middle" fill="#ffffff" font-size="10">LLM-based</text>
    
    <!-- Text Chunking -->
    <rect x="320" y="220" width="160" height="50" rx="8" fill="#9c27b0" filter="url(#shadow)"/>
    <text x="400" y="240" text-anchor="middle" fill="#ffffff" font-size="12" font-weight="bold">Text Chunking</text>
    <text x="400" y="255" text-anchor="middle" fill="#ffffff" font-size="10">Semantic Chunks</text>
  </g>
  
  <!-- Knowledge Graph Construction -->
  <g id="knowledge-graph">
    <rect x="550" y="120" width="200" height="120" rx="15" fill="url(#nodeGradient)" filter="url(#shadow)"/>
    <text x="650" y="140" text-anchor="middle" fill="#ffffff" font-size="16" font-weight="bold">Knowledge Graph</text>
    
    <!-- Graph nodes -->
    <circle cx="580" cy="170" r="12" fill="#ffd700" stroke="#ffffff" stroke-width="2"/>
    <circle cx="620" cy="160" r="12" fill="#ffd700" stroke="#ffffff" stroke-width="2"/>
    <circle cx="680" cy="170" r="12" fill="#ffd700" stroke="#ffffff" stroke-width="2"/>
    <circle cx="720" cy="180" r="12" fill="#ffd700" stroke="#ffffff" stroke-width="2"/>
    <circle cx="600" cy="200" r="12" fill="#ffd700" stroke="#ffffff" stroke-width="2"/>
    <circle cx="660" cy="210" r="12" fill="#ffd700" stroke="#ffffff" stroke-width="2"/>
    
    <!-- Graph edges -->
    <line x1="592" y1="170" x2="608" y2="160" stroke="#ffffff" stroke-width="2" opacity="0.7"/>
    <line x1="632" y1="160" x2="668" y2="170" stroke="#ffffff" stroke-width="2" opacity="0.7"/>
    <line x1="692" y1="170" x2="708" y2="180" stroke="#ffffff" stroke-width="2" opacity="0.7"/>
    <line x1="580" y1="182" x2="588" y2="200" stroke="#ffffff" stroke-width="2" opacity="0.7"/>
    <line x1="612" y1="200" x2="648" y2="210" stroke="#ffffff" stroke-width="2" opacity="0.7"/>
    <line x1="620" y1="172" x2="600" y2="188" stroke="#ffffff" stroke-width="2" opacity="0.7"/>
    
    <text x="650" y="230" text-anchor="middle" fill="#ffffff" font-size="11">Entities + Relationships</text>
  </g>
  
  <!-- Graph Analytics -->
  <g id="graph-analytics">
    <!-- Community Detection -->
    <rect x="820" y="80" width="160" height="50" rx="8" fill="#673ab7" filter="url(#shadow)"/>
    <text x="900" y="100" text-anchor="middle" fill="#ffffff" font-size="12" font-weight="bold">Community Detection</text>
    <text x="900" y="115" text-anchor="middle" fill="#ffffff" font-size="10">Leiden/Louvain</text>
    
    <!-- Hierarchical Summarization -->
    <rect x="820" y="150" width="160" height="50" rx="8" fill="#795548" filter="url(#shadow)"/>
    <text x="900" y="170" text-anchor="middle" fill="#ffffff" font-size="12" font-weight="bold">Hierarchical Summary</text>
    <text x="900" y="185" text-anchor="middle" fill="#ffffff" font-size="10">Multi-level</text>
    
    <!-- Graph Embeddings -->
    <rect x="820" y="220" width="160" height="50" rx="8" fill="#607d8b" filter="url(#shadow)"/>
    <text x="900" y="240" text-anchor="middle" fill="#ffffff" font-size="12" font-weight="bold">Graph Embeddings</text>
    <text x="900" y="255" text-anchor="middle" fill="#ffffff" font-size="10">Node2Vec/GraphSAGE</text>
  </g>
  
  <!-- Storage Layer -->
  <g id="storage-layer">
    <!-- Graph Database -->
    <rect x="550" y="300" width="120" height="80" rx="10" fill="#2196f3" filter="url(#shadow)"/>
    <text x="610" y="325" text-anchor="middle" fill="#ffffff" font-size="12" font-weight="bold">Graph DB</text>
    <text x="610" y="340" text-anchor="middle" fill="#ffffff" font-size="11">Neo4j/ArangoDB</text>
    <text x="610" y="355" text-anchor="middle" fill="#ffffff" font-size="11">NetworkX</text>
    
    <!-- Vector Store -->
    <rect x="700" y="300" width="120" height="80" rx="10" fill="#00bcd4" filter="url(#shadow)"/>
    <text x="760" y="325" text-anchor="middle" fill="#ffffff" font-size="12" font-weight="bold">Vector Store</text>
    <text x="760" y="340" text-anchor="middle" fill="#ffffff" font-size="11">Embeddings</text>
    <text x="760" y="355" text-anchor="middle" fill="#ffffff" font-size="11">Pinecone/Weaviate</text>
    
    <!-- Document Store -->
    <rect x="850" y="300" width="120" height="80" rx="10" fill="#4caf50" filter="url(#shadow)"/>
    <text x="910" y="325" text-anchor="middle" fill="#ffffff" font-size="12" font-weight="bold">Document Store</text>
    <text x="910" y="340" text-anchor="middle" fill="#ffffff" font-size="11">Original Text</text>
    <text x="910" y="355" text-anchor="middle" fill="#ffffff" font-size="11">MongoDB/ES</text>
  </g>
  
  <!-- Query Processing -->
  <g id="query-processing">
    <rect x="50" y="450" width="180" height="60" rx="10" fill="url(#llmGradient)" filter="url(#shadow)"/>
    <text x="140" y="475" text-anchor="middle" fill="#ffffff" font-size="14" font-weight="bold">User Query</text>
    <text x="140" y="495" text-anchor="middle" fill="#ffffff" font-size="12">"Complex Question"</text>
    
    <!-- Query Understanding -->
    <rect x="280" y="430" width="160" height="50" rx="8" fill="#ff5722" filter="url(#shadow)"/>
    <text x="360" y="450" text-anchor="middle" fill="#ffffff" font-size="12" font-weight="bold">Query Understanding</text>
    <text x="360" y="465" text-anchor="middle" fill="#ffffff" font-size="10">Entity Recognition</text>
    
    <!-- Query Expansion -->
    <rect x="280" y="500" width="160" height="50" rx="8" fill="#3f51b5" filter="url(#shadow)"/>
    <text x="360" y="520" text-anchor="middle" fill="#ffffff" font-size="12" font-weight="bold">Query Expansion</text>
    <text x="360" y="535" text-anchor="middle" fill="#ffffff" font-size="10">Graph Traversal</text>
  </g>
  
  <!-- Retrieval Engine -->
  <g id="retrieval-engine">
    <rect x="500" y="450" width="300" height="100" rx="15" fill="url(#nodeGradient)" filter="url(#shadow)"/>
    <text x="650" y="475" text-anchor="middle" fill="#ffffff" font-size="16" font-weight="bold">Graph-Aware Retrieval</text>
    
    <text x="520" y="500" fill="#ffffff" font-size="11">• Multi-hop reasoning</text>
    <text x="520" y="515" fill="#ffffff" font-size="11">• Community-based search</text>
    <text x="520" y="530" fill="#ffffff" font-size="11">• Relationship-aware ranking</text>
    <text x="520" y="545" fill="#ffffff" font-size="11">• Hierarchical context selection</text>
  </g>
  
  <!-- Response Generation -->
  <g id="response-generation">
    <rect x="850" y="450" width="200" height="100" rx="15" fill="url(#llmGradient)" filter="url(#shadow)"/>
    <text x="950" y="475" text-anchor="middle" fill="#ffffff" font-size="16" font-weight="bold">LLM Generation</text>
    <text x="950" y="495" text-anchor="middle" fill="#ffffff" font-size="12">GPT-4/Claude</text>
    
    <text x="870" y="515" fill="#ffffff" font-size="11">• Structured context</text>
    <text x="870" y="530" fill="#ffffff" font-size="11">• Relationship-aware</text>
    <text x="870" y="545" fill="#ffffff" font-size="11">• Multi-perspective</text>
  </g>
  
  <!-- Output -->
  <g id="output">
    <rect x="500" y="600" width="200" height="60" rx="10" fill="#4caf50" filter="url(#shadow)"/>
    <text x="600" y="625" text-anchor="middle" fill="#ffffff" font-size="14" font-weight="bold">Enhanced Response</text>
    <text x="600" y="645" text-anchor="middle" fill="#ffffff" font-size="12">Context-Rich Answer</text>
  </g>
  
  <!-- Arrows showing flow -->
  <!-- Input to Processing -->
  <path d="M 250 130 L 310 130" stroke="#ffffff" stroke-width="2" fill="none" marker-end="url(#arrowhead)"/>
  <path d="M 250 130 L 310 175" stroke="#ffffff" stroke-width="2" fill="none" marker-end="url(#arrowhead)"/>
  <path d="M 250 130 L 310 245" stroke="#ffffff" stroke-width="2" fill="none" marker-end="url(#arrowhead)"/>
  
  <!-- Processing to Graph -->
  <path d="M 480 105 L 540 150" stroke="#ffffff" stroke-width="2" fill="none" marker-end="url(#arrowhead)"/>
  <path d="M 480 175 L 540 175" stroke="#ffffff" stroke-width="2" fill="none" marker-end="url(#arrowhead)"/>
  <path d="M 480 245 L 540 200" stroke="#ffffff" stroke-width="2" fill="none" marker-end="url(#arrowhead)"/>
  
  <!-- Graph to Analytics -->
  <path d="M 750 150 L 810 105" stroke="#ffffff" stroke-width="2" fill="none" marker-end="url(#arrowhead)"/>
  <path d="M 750 180 L 810 175" stroke="#ffffff" stroke-width="2" fill="none" marker-end="url(#arrowhead)"/>
  <path d="M 750 210 L 810 245" stroke="#ffffff" stroke-width="2" fill="none" marker-end="url(#arrowhead)"/>
  
  <!-- Graph to Storage -->
  <path d="M 650 240 L 610 290" stroke="#ffffff" stroke-width="2" fill="none" marker-end="url(#arrowhead)"/>
  <path d="M 650 240 L 760 290" stroke="#ffffff" stroke-width="2" fill="none" marker-end="url(#arrowhead)"/>
  <path d="M 650 240 L 910 290" stroke="#ffffff" stroke-width="2" fill="none" marker-end="url(#arrowhead)"/>
  
  <!-- Query flow -->
  <path d="M 230 480 L 270 455" stroke="#ffffff" stroke-width="2" fill="none" marker-end="url(#arrowhead)"/>
  <path d="M 230 480 L 270 525" stroke="#ffffff" stroke-width="2" fill="none" marker-end="url(#arrowhead)"/>
  
  <!-- Query to Retrieval -->
  <path d="M 440 480 L 490 500" stroke="#ffffff" stroke-width="2" fill="none" marker-end="url(#arrowhead)"/>
  
  <!-- Storage to Retrieval -->
  <path d="M 610 380 L 580 440" stroke="#ffffff" stroke-width="2" fill="none" marker-end="url(#arrowhead)"/>
  <path d="M 760 380 L 720 440" stroke="#ffffff" stroke-width="2" fill="none" marker-end="url(#arrowhead)"/>
  <path d="M 910 380 L 780 440" stroke="#ffffff" stroke-width="2" fill="none" marker-end="url(#arrowhead)"/>
  
  <!-- Retrieval to Generation -->
  <path d="M 800 500 L 840 500" stroke="#ffffff" stroke-width="2" fill="none" marker-end="url(#arrowhead)"/>
  
  <!-- Generation to Output -->
  <path d="M 850 550 L 700 600" stroke="#ffffff" stroke-width="2" fill="none" marker-end="url(#arrowhead)"/>
  
  <!-- Arrow marker definition -->
  <defs>
    <marker id="arrowhead" markerWidth="10" markerHeight="7" refX="9" refY="3.5" orient="auto">
      <polygon points="0 0, 10 3.5, 0 7" fill="#ffffff"/>
    </marker>
  </defs>
  
  <!-- Legend -->
  <g id="legend">
    <rect x="50" y="700" width="300" height="80" rx="10" fill="rgba(0,0,0,0.3)" stroke="rgba(255,255,255,0.3)" stroke-width="1"/>
    <text x="200" y="720" text-anchor="middle" fill="#ffffff" font-size="14" font-weight="bold">Key Components</text>
    <circle cx="70" cy="740" r="6" fill="#ffd700"/>
    <text x="85" y="745" fill="#ffffff" font-size="11">Graph Nodes (Entities)</text>
    <line x1="70" y1="755" x2="85" y2="755" stroke="#ffffff" stroke-width="2"/>
    <text x="95" y="760" fill="#ffffff" font-size="11">Relationships</text>
    <rect x="200" y="735" width="40" height="15" rx="3" fill="#4ecdc4"/>
    <text x="250" y="745" fill="#ffffff" font-size="11">Processing</text>
    <rect x="200" y="755" width="40" height="15" rx="3" fill="#667eea"/>
    <text x="250" y="765" fill="#ffffff" font-size="11">LLM/AI</text>
  </g>
</svg>